<mxfile host="app.diagrams.net" agent="Mozilla/5.0 (Windows NT 10.0; Win64; x64) AppleWebKit/537.36 (KHTML, like Gecko) Chrome/136.0.0.0 Safari/537.36 Edg/136.0.0.0" version="27.0.3">
  <diagram name="Trang-1" id="nXRkb06BT9XijT-2H6uu">
    <mxGraphModel dx="1227" dy="606" grid="1" gridSize="10" guides="1" tooltips="1" connect="1" arrows="1" fold="1" page="1" pageScale="1" pageWidth="827" pageHeight="1169" math="0" shadow="0">
      <root>
        <mxCell id="0" />
        <mxCell id="1" parent="0" />
        <mxCell id="iwlAcsfu64_14NY_8_g7-8" style="edgeStyle=orthogonalEdgeStyle;rounded=0;orthogonalLoop=1;jettySize=auto;html=1;" edge="1" parent="1" source="iwlAcsfu64_14NY_8_g7-1" target="iwlAcsfu64_14NY_8_g7-7">
          <mxGeometry relative="1" as="geometry" />
        </mxCell>
        <mxCell id="iwlAcsfu64_14NY_8_g7-1" value="Admin/staff" style="shape=umlActor;verticalLabelPosition=bottom;verticalAlign=top;html=1;outlineConnect=0;" vertex="1" parent="1">
          <mxGeometry x="110" y="130" width="30" height="60" as="geometry" />
        </mxCell>
        <mxCell id="iwlAcsfu64_14NY_8_g7-14" value="" style="edgeStyle=orthogonalEdgeStyle;rounded=0;orthogonalLoop=1;jettySize=auto;html=1;" edge="1" parent="1" source="iwlAcsfu64_14NY_8_g7-7" target="iwlAcsfu64_14NY_8_g7-13">
          <mxGeometry relative="1" as="geometry" />
        </mxCell>
        <mxCell id="iwlAcsfu64_14NY_8_g7-7" value="System&amp;nbsp;" style="ellipse;whiteSpace=wrap;html=1;" vertex="1" parent="1">
          <mxGeometry x="330" y="120" width="130" height="80" as="geometry" />
        </mxCell>
        <mxCell id="iwlAcsfu64_14NY_8_g7-9" value="1" style="text;html=1;align=center;verticalAlign=middle;resizable=0;points=[];autosize=1;strokeColor=none;fillColor=none;" vertex="1" parent="1">
          <mxGeometry x="145" y="138" width="30" height="30" as="geometry" />
        </mxCell>
        <mxCell id="iwlAcsfu64_14NY_8_g7-10" value="Gửi yêu cầu thống kê" style="text;html=1;align=center;verticalAlign=middle;resizable=0;points=[];autosize=1;strokeColor=none;fillColor=none;" vertex="1" parent="1">
          <mxGeometry x="160" y="138" width="140" height="30" as="geometry" />
        </mxCell>
        <mxCell id="iwlAcsfu64_14NY_8_g7-23" style="edgeStyle=orthogonalEdgeStyle;rounded=0;orthogonalLoop=1;jettySize=auto;html=1;entryX=1;entryY=0.5;entryDx=0;entryDy=0;" edge="1" parent="1" source="iwlAcsfu64_14NY_8_g7-11" target="iwlAcsfu64_14NY_8_g7-22">
          <mxGeometry relative="1" as="geometry" />
        </mxCell>
        <mxCell id="iwlAcsfu64_14NY_8_g7-11" value="Database" style="shape=cylinder;whiteSpace=wrap;html=1;" vertex="1" parent="1">
          <mxGeometry x="505" y="390" width="120" height="80" as="geometry" />
        </mxCell>
        <mxCell id="iwlAcsfu64_14NY_8_g7-15" style="edgeStyle=orthogonalEdgeStyle;rounded=0;orthogonalLoop=1;jettySize=auto;html=1;entryX=0.5;entryY=0;entryDx=0;entryDy=0;" edge="1" parent="1" target="iwlAcsfu64_14NY_8_g7-11">
          <mxGeometry relative="1" as="geometry">
            <mxPoint x="562" y="200" as="sourcePoint" />
            <mxPoint x="561" y="370" as="targetPoint" />
          </mxGeometry>
        </mxCell>
        <mxCell id="iwlAcsfu64_14NY_8_g7-13" value="Inventory System&amp;nbsp;" style="ellipse;whiteSpace=wrap;html=1;" vertex="1" parent="1">
          <mxGeometry x="500" y="120" width="130" height="80" as="geometry" />
        </mxCell>
        <mxCell id="iwlAcsfu64_14NY_8_g7-16" value="2" style="text;html=1;align=center;verticalAlign=middle;resizable=0;points=[];autosize=1;strokeColor=none;fillColor=none;" vertex="1" parent="1">
          <mxGeometry x="555" y="198" width="30" height="30" as="geometry" />
        </mxCell>
        <mxCell id="iwlAcsfu64_14NY_8_g7-17" value="Truy vấn dữ liệu" style="text;html=1;align=center;verticalAlign=middle;resizable=0;points=[];autosize=1;strokeColor=none;fillColor=none;rotation=90;" vertex="1" parent="1">
          <mxGeometry x="530" y="250" width="110" height="30" as="geometry" />
        </mxCell>
        <mxCell id="iwlAcsfu64_14NY_8_g7-19" value="" style="endArrow=classic;html=1;rounded=0;" edge="1" parent="1">
          <mxGeometry width="50" height="50" relative="1" as="geometry">
            <mxPoint x="180" y="135" as="sourcePoint" />
            <mxPoint x="250" y="135" as="targetPoint" />
          </mxGeometry>
        </mxCell>
        <mxCell id="iwlAcsfu64_14NY_8_g7-20" value="" style="endArrow=classic;html=1;rounded=0;entryX=0.836;entryY=-0.053;entryDx=0;entryDy=0;entryPerimeter=0;exitX=0.233;exitY=0.013;exitDx=0;exitDy=0;exitPerimeter=0;" edge="1" parent="1" source="iwlAcsfu64_14NY_8_g7-17" target="iwlAcsfu64_14NY_8_g7-17">
          <mxGeometry width="50" height="50" relative="1" as="geometry">
            <mxPoint x="590" y="240" as="sourcePoint" />
            <mxPoint x="640" y="190" as="targetPoint" />
          </mxGeometry>
        </mxCell>
        <mxCell id="iwlAcsfu64_14NY_8_g7-22" value="Report generator" style="rhombus;whiteSpace=wrap;html=1;" vertex="1" parent="1">
          <mxGeometry x="280" y="328" width="80" height="80" as="geometry" />
        </mxCell>
        <mxCell id="iwlAcsfu64_14NY_8_g7-24" style="edgeStyle=orthogonalEdgeStyle;rounded=0;orthogonalLoop=1;jettySize=auto;html=1;entryX=0;entryY=1;entryDx=0;entryDy=0;exitX=0.5;exitY=0;exitDx=0;exitDy=0;" edge="1" parent="1" source="iwlAcsfu64_14NY_8_g7-22" target="iwlAcsfu64_14NY_8_g7-7">
          <mxGeometry relative="1" as="geometry">
            <Array as="points">
              <mxPoint x="320" y="199" />
              <mxPoint x="349" y="199" />
            </Array>
          </mxGeometry>
        </mxCell>
        <mxCell id="iwlAcsfu64_14NY_8_g7-26" style="edgeStyle=orthogonalEdgeStyle;rounded=0;orthogonalLoop=1;jettySize=auto;html=1;entryX=0.5;entryY=0;entryDx=0;entryDy=0;entryPerimeter=0;" edge="1" parent="1" source="iwlAcsfu64_14NY_8_g7-7" target="iwlAcsfu64_14NY_8_g7-1">
          <mxGeometry relative="1" as="geometry">
            <Array as="points">
              <mxPoint x="390" y="80" />
              <mxPoint x="125" y="80" />
            </Array>
          </mxGeometry>
        </mxCell>
        <mxCell id="iwlAcsfu64_14NY_8_g7-27" value="Thông báo" style="text;html=1;align=center;verticalAlign=middle;resizable=0;points=[];autosize=1;strokeColor=none;fillColor=none;" vertex="1" parent="1">
          <mxGeometry x="190" y="50" width="80" height="30" as="geometry" />
        </mxCell>
        <mxCell id="iwlAcsfu64_14NY_8_g7-29" value="" style="edgeStyle=none;orthogonalLoop=1;jettySize=auto;html=1;rounded=0;" edge="1" parent="1">
          <mxGeometry width="100" relative="1" as="geometry">
            <mxPoint x="253" y="53" as="sourcePoint" />
            <mxPoint x="203" y="53" as="targetPoint" />
            <Array as="points" />
          </mxGeometry>
        </mxCell>
        <mxCell id="iwlAcsfu64_14NY_8_g7-30" value="3" style="text;html=1;align=center;verticalAlign=middle;resizable=0;points=[];autosize=1;strokeColor=none;fillColor=none;" vertex="1" parent="1">
          <mxGeometry x="475" y="408" width="30" height="30" as="geometry" />
        </mxCell>
        <mxCell id="iwlAcsfu64_14NY_8_g7-31" value="Tạo PDF" style="text;html=1;align=center;verticalAlign=middle;resizable=0;points=[];autosize=1;strokeColor=none;fillColor=none;" vertex="1" parent="1">
          <mxGeometry x="355" y="338" width="70" height="30" as="geometry" />
        </mxCell>
        <mxCell id="iwlAcsfu64_14NY_8_g7-32" value="Trả file PDF" style="text;html=1;align=center;verticalAlign=middle;resizable=0;points=[];autosize=1;strokeColor=none;fillColor=none;" vertex="1" parent="1">
          <mxGeometry x="320" y="250" width="90" height="30" as="geometry" />
        </mxCell>
        <mxCell id="iwlAcsfu64_14NY_8_g7-33" value="" style="endArrow=classic;html=1;rounded=0;" edge="1" parent="1">
          <mxGeometry width="50" height="50" relative="1" as="geometry">
            <mxPoint x="305" y="290" as="sourcePoint" />
            <mxPoint x="305" y="230" as="targetPoint" />
          </mxGeometry>
        </mxCell>
        <mxCell id="iwlAcsfu64_14NY_8_g7-34" value="" style="endArrow=classic;html=1;rounded=0;" edge="1" parent="1">
          <mxGeometry width="50" height="50" relative="1" as="geometry">
            <mxPoint x="470" y="420" as="sourcePoint" />
            <mxPoint x="440" y="420" as="targetPoint" />
          </mxGeometry>
        </mxCell>
        <mxCell id="iwlAcsfu64_14NY_8_g7-38" value="" style="endArrow=classic;html=1;rounded=0;entryX=0.146;entryY=0.027;entryDx=0;entryDy=0;entryPerimeter=0;" edge="1" parent="1" target="iwlAcsfu64_14NY_8_g7-31">
          <mxGeometry width="50" height="50" relative="1" as="geometry">
            <mxPoint x="430" y="340" as="sourcePoint" />
            <mxPoint x="480" y="290" as="targetPoint" />
          </mxGeometry>
        </mxCell>
        <mxCell id="iwlAcsfu64_14NY_8_g7-39" value="4" style="text;html=1;align=center;verticalAlign=middle;resizable=0;points=[];autosize=1;strokeColor=none;fillColor=none;" vertex="1" parent="1">
          <mxGeometry x="315" y="308" width="30" height="30" as="geometry" />
        </mxCell>
        <mxCell id="iwlAcsfu64_14NY_8_g7-40" value="5" style="text;html=1;align=center;verticalAlign=middle;resizable=0;points=[];autosize=1;strokeColor=none;fillColor=none;" vertex="1" parent="1">
          <mxGeometry x="395" y="88" width="30" height="30" as="geometry" />
        </mxCell>
      </root>
    </mxGraphModel>
  </diagram>
</mxfile>
